<?xml version="1.0" encoding="utf-8"?>
<!-- Generator: Adobe Illustrator 17.0.0, SVG Export Plug-In . SVG Version: 6.00 Build 0)  -->
<!DOCTYPE svg PUBLIC "-//W3C//DTD SVG 1.1//EN" "http://www.w3.org/Graphics/SVG/1.1/DTD/svg11.dtd">
<svg version="1.1" id="Layer_1" xmlns="http://www.w3.org/2000/svg" xmlns:xlink="http://www.w3.org/1999/xlink" x="0px" y="0px"
	 width="15px" height="15px" viewBox="0 0 15 15" enable-background="new 0 0 15 15" xml:space="preserve">
<g opacity="0.5">
	<path fill="#2C2F33" d="M0.101,14.899C0.167,14.964,0.255,15,0.345,15c0.027,0,0.055-0.003,0.082-0.01l4.444-1.084
		c0.002,0,0.003-0.001,0.005-0.002c0.013-0.003,0.026-0.007,0.038-0.012c0.001,0,0.001,0,0.002-0.001
		c0.013-0.005,0.026-0.012,0.039-0.019c0.002-0.001,0.005-0.003,0.007-0.004c0.01-0.006,0.02-0.012,0.029-0.019
		c0.003-0.002,0.006-0.004,0.009-0.006c0.011-0.009,0.022-0.018,0.032-0.028l9.362-9.362c0.806-0.806,0.806-2.118,0-2.924
		l-0.924-0.924C13.081,0.215,12.561,0,12.009,0s-1.071,0.215-1.462,0.606L1.185,9.967C1.175,9.978,1.166,9.988,1.157,10
		c-0.002,0.003-0.004,0.006-0.006,0.009c-0.007,0.01-0.013,0.019-0.019,0.029c-0.001,0.002-0.003,0.005-0.004,0.007
		c-0.007,0.013-0.013,0.026-0.019,0.039c0,0.001,0,0.001-0.001,0.002c-0.005,0.013-0.009,0.026-0.012,0.039
		c0,0.002-0.001,0.003-0.001,0.005L0.01,14.574C-0.018,14.691,0.016,14.814,0.101,14.899z M1.916,10.211l7.632-7.632l0.632,0.632
		l-7.632,7.632L1.916,10.211z M11.789,4.82l0.632,0.632L4.79,13.084l-0.632-0.632L11.789,4.82z M11.034,1.093
		c0.26-0.26,0.606-0.404,0.975-0.404c0.368,0,0.714,0.143,0.975,0.404l0.924,0.924c0.537,0.537,0.537,1.412,0,1.949l-0.999,0.999
		l-2.873-2.873L11.034,1.093z M1.619,10.888l2.494,2.494l-3.298,0.804L1.619,10.888z"/>
</g>
</svg>
