<?xml version="1.0" encoding="utf-8"?>
<!-- Generator: Adobe Illustrator 17.0.0, SVG Export Plug-In . SVG Version: 6.00 Build 0)  -->
<!DOCTYPE svg PUBLIC "-//W3C//DTD SVG 1.1//EN" "http://www.w3.org/Graphics/SVG/1.1/DTD/svg11.dtd">
<svg version="1.1" id="Layer_1" xmlns="http://www.w3.org/2000/svg" xmlns:xlink="http://www.w3.org/1999/xlink" x="0px" y="0px"
	 width="1000px" height="1000px" viewBox="0 0 1000 1000" enable-background="new 0 0 1000 1000" xml:space="preserve">
<path fill="#979797" d="M1779.926,1109.922v11.155c-2.715,4.762-4.788,10.072-8.266,14.191c-6.046,7.142-14.593,8.881-23.701,8.868
	c-72.24-0.053-144.494-0.027-216.734-0.027h-7.998v7.437c0,71.144-0.267,142.274,0.174,213.404
	c0.12,17.749-5.778,30.175-23.206,35.859h-11.155c-0.268-0.241-0.495-0.602-0.816-0.709c-15.877-5.631-22.203-14.445-22.203-31.245
	c-0.013-72.254-0.013-144.494-0.013-216.748v-7.998h-7.437c-71.13,0-142.274-0.254-213.404,0.174
	c-17.722,0.107-30.188-5.751-35.859-23.206v-11.155c2.849-4.895,5.042-10.353,8.667-14.579c5.965-6.928,14.405-8.493,23.286-8.48
	c72.254,0.053,144.494,0.027,216.748,0.027h7.998v-7.437c0-71.13,0.267-142.274-0.174-213.404
	c-0.12-17.749,5.751-30.188,23.206-35.859h11.155c4.896,2.849,10.353,5.042,14.579,8.667c6.928,5.965,8.48,14.405,8.48,23.286
	c-0.053,72.254-0.027,144.494-0.027,216.748v7.998h7.437c71.144,0,142.274,0.254,213.404-0.174
	C1761.802,1086.609,1774.268,1092.453,1779.926,1109.922z"/>
<g>
	<g>
		<path fill="#979797" d="M913.763,609.488c-15.006,93.429-55.545,174.1-123.142,240.565
			c-64.942,63.857-142.894,102.511-232.662,117.391c-12.979,2.153-26.052,3.755-39.078,5.625h-55.435
			c-17.316-2.483-34.741-4.305-51.9-7.558C212.651,927.911,67.29,756.42,63.409,553.974
			c-2.058-108.137,32.227-204.19,102.496-286.259c71.745-83.813,163.383-132.193,272.18-146.775c0-21.354,0.377-43.195-0.141-65.005
			c-0.314-13.262,3.551-23.412,16.263-29.006h11.078c5.657,4.604,11.628,8.862,16.891,13.875
			c34.584,32.903,68.996,65.979,103.486,98.992c14.974,14.346,15.367,24.622,1.21,39.408
			c-34.49,36.046-69.153,71.95-103.517,108.105c-7.652,8.061-16.09,12.963-27.011,8.642c-11.015-4.353-13.607-13.89-13.482-24.921
			c0.251-23.365,0.079-46.73,0.079-73.332c-24.292,6.489-46.353,10.591-67.11,18.243
			c-113.479,41.859-188.587,121.163-221.348,237.376c-27.419,97.279-12.885,190.567,40.524,276.532
			c54.681,88.008,134.754,140.882,236.056,159.219c86.217,15.603,167.956-0.644,242.734-46.856
			c85.384-52.748,139.17-129.223,158.748-227.115c24.465-122.278-8.972-228.938-96.509-318.014
			c-13.309-13.545-28.959-24.811-43.289-37.381c-12.995-11.392-16.844-29.006-10.229-44.562
			c6.584-15.462,22.281-25.754,39.141-23.349c8.108,1.163,16.672,4.918,23.287,9.836C825,261.226,878.723,339.099,904.728,435.593
			C920.142,492.819,923.159,550.957,913.763,609.488z"/>
	</g>
</g>
</svg>
