<?xml version="1.0" encoding="utf-8"?>
<!-- Generator: Adobe Illustrator 17.0.0, SVG Export Plug-In . SVG Version: 6.00 Build 0)  -->
<!DOCTYPE svg PUBLIC "-//W3C//DTD SVG 1.1//EN" "http://www.w3.org/Graphics/SVG/1.1/DTD/svg11.dtd">
<svg version="1.1" id="Layer_1" xmlns="http://www.w3.org/2000/svg" xmlns:xlink="http://www.w3.org/1999/xlink" x="0px" y="0px"
	 width="15px" height="15px" viewBox="0 0 15 15" enable-background="new 0 0 15 15" xml:space="preserve">
<g opacity="0.5">
	<g>
		<rect x="8.42" y="1.531" fill="#2C2F33" width="1.836" height="3.061"/>
		<path fill="#2C2F33" d="M12.219,0H0.153v15h14.693V2.628L12.219,0z M3.215,0.613h7.96V5.51h-7.96V0.613z M12.092,14.389h-9.49
			V7.96h9.49V14.389z M12.092,14.389"/>
		<path fill="#2C2F33" d="M4.132,9.797h2.144c0.169,0,0.307-0.138,0.307-0.307c0-0.169-0.138-0.307-0.307-0.307H4.132
			c-0.169,0-0.305,0.137-0.305,0.307C3.828,9.659,3.963,9.797,4.132,9.797L4.132,9.797z M4.132,9.797"/>
		<path fill="#2C2F33" d="M4.132,11.021h3.061c0.171,0,0.307-0.138,0.307-0.307s-0.136-0.307-0.307-0.307H4.132
			c-0.169,0-0.305,0.138-0.305,0.307S3.963,11.021,4.132,11.021L4.132,11.021z M4.132,11.021"/>
		<path fill="#2C2F33" d="M8.113,11.021c0.082,0,0.158-0.034,0.217-0.09c0.055-0.058,0.09-0.137,0.09-0.217s-0.034-0.16-0.09-0.217
			c-0.114-0.114-0.318-0.114-0.432,0c-0.057,0.057-0.091,0.133-0.091,0.217c0,0.082,0.033,0.158,0.088,0.217
			C7.953,10.987,8.029,11.021,8.113,11.021L8.113,11.021z M8.113,11.021"/>
	</g>
</g>
</svg>
