<?xml version="1.0" encoding="utf-8"?>
<!-- Generator: Adobe Illustrator 17.0.0, SVG Export Plug-In . SVG Version: 6.00 Build 0)  -->
<!DOCTYPE svg PUBLIC "-//W3C//DTD SVG 1.1//EN" "http://www.w3.org/Graphics/SVG/1.1/DTD/svg11.dtd">
<svg version="1.1" id="Layer_1" xmlns="http://www.w3.org/2000/svg" xmlns:xlink="http://www.w3.org/1999/xlink" x="0px" y="0px"
	 width="612px" height="650px" viewBox="0 0 612 650" enable-background="new 0 0 612 650" xml:space="preserve">
<path fill="#979797" d="M593.926,332.922v11.155c-2.715,4.762-4.788,10.072-8.266,14.191c-6.046,7.142-14.593,8.881-23.701,8.868
	c-72.24-0.053-144.494-0.027-216.734-0.027h-7.998v7.437c0,71.144-0.268,142.274,0.174,213.404
	c0.12,17.749-5.778,30.175-23.206,35.859h-11.155c-0.268-0.241-0.495-0.602-0.816-0.709c-15.877-5.631-22.203-14.445-22.203-31.245
	c-0.013-72.254-0.013-144.494-0.013-216.748v-7.998h-7.437c-71.13,0-142.274-0.254-213.404,0.174
	c-17.722,0.107-30.188-5.751-35.859-23.206v-11.155c2.849-4.895,5.043-10.353,8.667-14.579c5.965-6.928,14.405-8.493,23.287-8.48
	c72.254,0.054,144.494,0.027,216.748,0.027h7.998v-7.437c0-71.13,0.268-142.274-0.174-213.404
	c-0.12-17.749,5.751-30.188,23.206-35.859h11.155c4.895,2.849,10.353,5.042,14.579,8.667c6.928,5.965,8.48,14.405,8.48,23.286
	c-0.053,72.254-0.027,144.494-0.027,216.748v7.998h7.437c71.144,0,142.274,0.254,213.404-0.174
	C575.802,309.608,588.268,315.454,593.926,332.922z"/>
</svg>
