<?xml version="1.0" encoding="utf-8"?>
<!-- Generator: Adobe Illustrator 17.0.0, SVG Export Plug-In . SVG Version: 6.00 Build 0)  -->
<!DOCTYPE svg PUBLIC "-//W3C//DTD SVG 1.1//EN" "http://www.w3.org/Graphics/SVG/1.1/DTD/svg11.dtd">
<svg version="1.1" id="Layer_1" xmlns="http://www.w3.org/2000/svg" xmlns:xlink="http://www.w3.org/1999/xlink" x="0px" y="0px"
	 width="15px" height="15px" viewBox="0 0 15 15" enable-background="new 0 0 15 15" xml:space="preserve">
<path opacity="0.5" fill="#2C2F33" d="M8.639,7.5l5.125-5.125c0.315-0.315,0.315-0.824,0-1.139c-0.315-0.315-0.824-0.315-1.139,0
	L7.5,6.361L2.375,1.236c-0.315-0.315-0.824-0.315-1.139,0s-0.315,0.824,0,1.139L6.361,7.5l-5.125,5.125
	c-0.315,0.315-0.315,0.824,0,1.139C1.393,13.921,1.599,14,1.805,14s0.412-0.079,0.569-0.236L7.5,8.639l5.125,5.125
	C12.783,13.921,12.989,14,13.195,14s0.412-0.079,0.569-0.236c0.315-0.315,0.315-0.824,0-1.139L8.639,7.5z"/>
</svg>
