<?xml version="1.0" encoding="utf-8"?>
<!-- Generator: Adobe Illustrator 17.0.0, SVG Export Plug-In . SVG Version: 6.00 Build 0)  -->
<!DOCTYPE svg PUBLIC "-//W3C//DTD SVG 1.1//EN" "http://www.w3.org/Graphics/SVG/1.1/DTD/svg11.dtd">
<svg version="1.1" id="Layer_1" xmlns="http://www.w3.org/2000/svg" xmlns:xlink="http://www.w3.org/1999/xlink" x="0px" y="0px"
	 width="15px" height="15px" viewBox="0 0 15 15" enable-background="new 0 0 15 15" xml:space="preserve">
<path opacity="0.5" fill="#2C2F33" d="M14.759,13.58l-3.683-3.683c1.852-2.407,1.667-5.885-0.556-8.086C9.307,0.597,7.743,0,6.159,0
	S3.011,0.597,1.797,1.811c-2.407,2.407-2.407,6.317,0,8.724c1.214,1.214,2.778,1.811,4.362,1.811c1.317,0,2.634-0.412,3.724-1.255
	l3.704,3.663C13.751,14.918,13.957,15,14.183,15c0.206,0,0.432-0.082,0.597-0.247C15.089,14.444,15.089,13.909,14.759,13.58z
	 M6.179,10.679c-1.214,0-2.325-0.473-3.189-1.317c-1.749-1.749-1.749-4.609,0-6.379C3.834,2.14,4.965,1.667,6.179,1.667
	S8.504,2.14,9.369,2.984s1.317,1.975,1.317,3.189s-0.473,2.325-1.317,3.189C8.525,10.226,7.373,10.679,6.179,10.679z"/>
</svg>
